<?xml version="1.0" standalone="no"?>
<svg id="Convenient" width="48" height="48" viewBox="0 0 48 48" fill="none" xmlns="http://www.w3.org/2000/svg" style="max-width: 100%; max-height: 100%;">
<path d="M11.2822 31.795C8.82074 33.8626 8.00024 40 8.00024 40C8.00024 40 14.1376 39.1795 16.2052 36.718C17.3703 35.3395 17.3539 33.2227 16.0575 31.9427C15.4197 31.3339 14.5795 30.9821 13.6982 30.9548C12.8168 30.9276 11.9565 31.2268 11.2822 31.795Z" stroke="black" stroke-width="1.5" stroke-linecap="round" stroke-linejoin="round" stroke-dasharray="0,0,0,0,0,28.45296287536621"><animate attributeType="XML" attributeName="stroke-dasharray" repeatCount="indefinite" dur="2.2058823529411766s" values="0,0,0,0,0,28.45296287536621; 
          0,0,0,4.742160479227701,14.226481437683105,9.484320958455402; 
          0,0,9.484320958455404,0,18.96864191691081,28.45296287536621; 
          0,0,18.96864191691081,0,9.484320958455404,28.45296287536621; 
          0,0,23.710802396138508,4.742160479227702,0,0; 
          0,28.45296287536621,0,9.484320958455404,0,28.45296287536621" keyTimes="0; 0.16666666666666666; 0.3333; 0.6666; 0.8333; 1"></animate></path>
<path d="M23.5897 29.3334L18.6667 24.4104C19.54 22.1449 20.6396 19.9732 21.9487 17.9284C23.8608 14.8712 26.5232 12.3541 29.6828 10.6163C32.8423 8.87856 36.3939 7.97804 39.9997 8.00041C39.9997 12.4639 38.7198 20.3079 30.1537 26.0514C28.081 27.3621 25.882 28.4616 23.5897 29.3334Z" stroke="black" stroke-width="1.5" stroke-linecap="round" stroke-linejoin="round" stroke-dasharray="0,0,0,0,0,64.5739517211914"><animate attributeType="XML" attributeName="stroke-dasharray" repeatCount="indefinite" dur="2.2058823529411766s" values="0,0,0,0,0,64.5739517211914; 
          0,0,0,10.762325286865234,32.2869758605957,21.52465057373047; 
          0,0,21.52465057373047,0,43.04930114746094,64.5739517211914; 
          0,0,43.04930114746094,0,21.52465057373047,64.5739517211914; 
          0,0,53.81162643432617,10.762325286865234,0,0; 
          0,64.5739517211914,0,21.52465057373047,0,64.5739517211914" keyTimes="0; 0.16666666666666666; 0.3333; 0.6666; 0.8333; 1"></animate></path>
<path d="M18.6667 24.4108H10.4617C10.4617 24.4108 11.3642 19.4385 13.7437 17.8468C16.4021 16.0745 21.9487 17.8468 21.9487 17.8468" stroke="black" stroke-width="1.5" stroke-linecap="round" stroke-linejoin="round" stroke-dasharray="0,0,0,0,0,24.12445831298828"><animate attributeType="XML" attributeName="stroke-dasharray" repeatCount="indefinite" dur="2.2058823529411766s" values="0,0,0,0,0,24.12445831298828; 
          0,0,0,4.020743052164713,12.06222915649414,8.041486104329426; 
          0,0,8.041486104329428,0,16.082972208658855,24.12445831298828; 
          0,0,16.082972208658855,0,8.041486104329428,24.12445831298828; 
          0,0,20.103715260823567,4.020743052164714,0,0; 
          0,24.12445831298828,0,8.041486104329428,0,24.12445831298828" keyTimes="0; 0.16666666666666666; 0.3333; 0.6666; 0.8333; 1"></animate></path>
<path d="M23.5898 29.3338V37.5387C23.5898 37.5387 28.5621 36.6362 30.1538 34.2568C31.9261 31.5983 30.1538 26.0518 30.1538 26.0518" stroke="black" stroke-width="1.5" stroke-linecap="round" stroke-linejoin="round" stroke-dasharray="0,0,0,0,0,24.124305725097656"><animate attributeType="XML" attributeName="stroke-dasharray" repeatCount="indefinite" dur="2.2058823529411766s" values="0,0,0,0,0,24.124305725097656; 
          0,0,0,4.020717620849609,12.062152862548828,8.041435241699219; 
          0,0,8.041435241699219,0,16.082870483398438,24.124305725097656; 
          0,0,16.082870483398438,0,8.041435241699219,24.124305725097656; 
          0,0,20.103588104248047,4.020717620849609,0,0; 
          0,24.124305725097656,0,8.041435241699219,0,24.124305725097656" keyTimes="0; 0.16666666666666666; 0.3333; 0.6666; 0.8333; 1"></animate></path>
<setting>{"type":"delay","speed":34,"random":1,"shift":1,"size":1,"rupture":50}</setting></svg>